<svg width="34" height="69" viewBox="0 0 34 69" fill="none" xmlns="http://www.w3.org/2000/svg">
<path d="M3.86652 33.2794C3.00909 36.2784 3.09207 39.5817 4.85039 42.476C6.21556 44.7243 8.40853 46.376 10.639 47.8597C12.9308 49.3849 15.3411 50.8054 17.291 52.7277C19.079 54.4919 20.3335 56.6296 20.865 58.949C21.6473 62.3668 20.9361 65.8163 19.8021 68.9675C20.5311 67.4996 21.2601 66.0317 21.9871 64.5657C21.1969 59.2236 17.5123 54.5196 12.261 51.9986C12.2314 51.9848 10.0305 56.3806 10.076 56.4004C15.3272 58.9213 19.0118 63.6253 19.8021 68.9675C19.7902 68.8845 20.1439 68.3214 20.1399 68.3313C20.4046 67.8157 20.6635 67.298 20.9203 66.7784C21.2818 66.0514 21.7145 65.3283 21.9891 64.5657C23.8028 59.5219 24.2749 53.6621 20.1695 49.053C16.5798 45.0246 10.7714 43.2347 7.57283 38.8744C5.34233 35.8339 5.11117 32.177 6.05356 28.8796C5.84216 29.6185 5.2791 30.3772 4.93534 31.0687C4.57972 31.7799 4.08581 32.5129 3.86652 33.2794Z" fill="#4F200E"/>
<path d="M32.6076 9.03247C30.2823 10.3048 26.6056 11.9485 21.7178 12.7546C16.0497 13.6891 11.2291 13.0885 8.29136 12.5116C7.8903 13.1695 7.48727 13.8866 7.09609 14.6611C6.76023 15.3289 6.46389 15.9749 6.20508 16.5933C9.44514 17.1148 14.1432 17.5218 19.596 16.7533C23.7784 16.1645 27.1687 15.0582 29.658 14.0309C29.8911 13.7622 30.2507 13.3216 30.6241 12.7329C30.7485 12.5353 30.7228 12.561 31.4598 11.2077C31.8213 10.5438 32.0011 10.2179 32.2816 9.67456C32.4199 9.40389 32.5325 9.18064 32.6076 9.03247Z" fill="#4F200E"/>
<path d="M20.7498 17.4883C16.9546 14.9634 12.8097 13.2071 8.28545 12.48C8.11357 12.4524 7.19687 14.432 7.09019 14.6295C6.98943 14.8172 6.10039 16.7929 5.94629 16.8047C9.78892 17.4251 13.3352 18.7646 16.68 20.7382C19.7481 22.5479 22.7669 24.8179 24.3771 27.9098C25.5368 30.1383 25.602 31.5114 25.519 32.2325C25.4024 33.252 25.0172 34.0304 24.7169 34.5183C24.7189 34.5677 24.6932 34.6112 24.6517 34.625C24.624 34.6349 24.5984 34.631 24.5845 34.627C24.5549 34.6566 24.5253 34.6863 24.4917 34.712C23.8792 35.1683 23.2944 35.6563 22.6148 36.0317C22.3086 36.2016 21.9391 36.2372 21.6151 36.1166C20.9809 36.2806 17.4623 37.1302 14.2618 35.1881C10.6286 32.9833 9.90153 28.6941 10.2651 26.1021C10.3875 25.2328 10.6325 24.5433 10.8242 24.0909C9.78299 25.3355 9.00656 26.6138 8.43363 27.894C8.42375 27.9177 8.41189 27.9414 8.40201 27.9651C8.40201 27.9671 8.40004 27.9711 8.40004 27.973C6.83138 31.5687 7.58212 36.0989 11.0553 38.8964C14.7992 41.9092 20.2144 41.1328 23.247 38.1693C23.2865 38.1318 23.326 38.0923 23.3616 38.0508C24.0392 37.3573 24.5193 36.5552 24.9856 35.7195C25.2938 35.1644 25.6198 34.6092 25.9359 34.0501C26.4555 33.1314 26.9553 32.1989 27.3287 31.2328C27.8937 29.7669 27.9925 28.1489 27.7258 26.5664C27.0837 22.7376 24.1005 19.7148 20.7498 17.4883Z" fill="#4F200E"/>
<path d="M30.1104 45.7813C30.0887 49.209 28.8954 52.2555 27.3228 55.2189C26.7953 56.2068 26.2816 57.2084 25.7107 58.1725C25.3728 58.7455 25.6889 58.1469 25.9122 57.7221C25.9221 57.6846 26.1631 57.2064 26.2204 57.0761C26.3508 56.7896 26.4693 56.4992 26.5839 56.2068C26.7578 55.7563 26.9119 55.298 27.0521 54.8357C27.307 53.9743 27.5006 53.0932 27.6191 52.1982C27.7831 50.9792 27.8147 49.7365 27.6962 48.4938C27.3544 44.8843 25.7838 41.4764 23.4426 38.4931C22.9171 37.8214 22.3501 37.1675 21.7495 36.5412C18.5588 33.2083 14.4139 30.555 10.105 28.9626C9.89364 26.9731 10.2275 25.4045 10.7866 24.1717C10.7985 24.144 10.8103 24.1183 10.8242 24.0927C12.7682 24.7031 15.3128 25.7028 18.0274 27.3782C21.6487 29.6126 24.0827 32.1296 25.5585 33.9096C25.6316 34.0005 25.7047 34.0894 25.7778 34.1803C25.8371 34.2554 25.8964 34.3304 25.9556 34.4075C25.9793 34.4352 25.9991 34.4628 26.0208 34.4924C26.8704 35.5949 27.6132 36.7625 28.2296 37.9874C29.4683 40.4549 30.1262 43.1319 30.1104 45.7813Z" fill="#4F200E"/>
<path d="M10.1071 51.4476C9.53025 52.4512 8.4792 52.9688 8.05839 53.1684C7.00932 53.6702 5.9563 53.8262 5.29841 53.8796C5.59081 53.7117 6.04126 53.3995 6.30204 52.9036C6.38502 52.7456 6.43639 52.5934 6.46405 52.4611C7.18121 52.2596 7.67117 52.0403 8.01098 51.8466C7.96356 51.7894 7.89836 51.7321 7.80946 51.6708C7.53485 51.4831 7.17133 51.3883 6.80978 51.3488C6.00965 51.2579 5.23124 51.414 4.56348 51.6945C4.67411 51.6471 4.79463 51.4081 4.86772 51.3231C5.11666 51.0268 5.37151 50.7324 5.62637 50.44C5.88123 50.1456 6.13609 49.8532 6.3949 49.5608C6.42651 49.5233 6.6221 49.2447 6.72286 49.2013C7.58424 48.8437 8.96521 48.5928 9.87203 49.1242C10.1071 49.2605 10.2118 49.4245 10.2672 49.5016C10.8065 50.2345 10.3245 51.0682 10.1071 51.4476Z" fill="#FE6601"/>
<path d="M8.7264 23.9031C7.81761 25.4816 6.16399 26.2956 5.50215 26.6117C3.85051 27.402 2.19492 27.645 1.15771 27.7299C1.61803 27.4672 2.32729 26.9752 2.73625 26.1949C2.86664 25.9439 2.94567 25.7069 2.99111 25.4975C4.12117 25.1794 4.89168 24.8356 5.4251 24.5294C5.35003 24.4405 5.24729 24.3476 5.109 24.2508C4.67633 23.9545 4.10339 23.8063 3.53638 23.7431C2.27592 23.6008 1.053 23.8478 0.00195313 24.2864C0.17581 24.2133 0.365471 23.8359 0.480059 23.7016C0.873212 23.2353 1.27229 22.773 1.67335 22.3107C2.07441 21.8484 2.47546 21.3861 2.88442 20.9278C2.93579 20.8705 3.24201 20.4299 3.40204 20.3628C4.75733 19.7997 6.92857 19.4065 8.35696 20.2403C8.72838 20.4556 8.89038 20.7124 8.97929 20.8349C9.82684 21.9946 9.06819 23.3065 8.7264 23.9031Z" fill="#FE6601"/>
<path d="M5.62266 12.4996C5.67798 14.0525 4.46691 15.3564 2.91405 15.4117C1.36119 15.467 0.0572669 14.256 0.00194881 12.7031C-0.0553449 11.1503 1.1577 9.84633 2.71056 9.79101C4.26144 9.73372 5.56537 10.9468 5.62266 12.4996Z" fill="#FE6601"/>
<path d="M18.9642 8.19665C19.0176 9.6527 17.8796 10.8756 16.4236 10.927C14.9675 10.9803 13.7446 9.84237 13.6932 8.38631C13.6399 6.93026 14.7778 5.70734 16.2339 5.65597C17.688 5.60461 18.9109 6.7406 18.9642 8.19665Z" fill="#FE6601"/>
<path d="M25.182 8.19665C25.2353 9.6527 24.0974 10.8756 22.6413 10.927C21.1853 10.9803 19.9643 9.84237 19.911 8.38631C19.8576 6.93026 20.9956 5.70734 22.4517 5.65597C23.9077 5.60461 25.1306 6.7406 25.182 8.19665Z" fill="#FE6601"/>
<path d="M27.9729 1.99708C23.666 4.06558 18.8711 5.09885 14.501 4.89535C13.8806 4.86572 13.2247 4.53776 12.6893 4.37971C12.2645 4.25525 11.8418 4.1288 11.4209 4.00039C11.2708 3.95495 11.0713 3.84234 10.9033 3.83443C15.2715 4.03595 20.0683 3.00466 24.3752 0.936161C24.5945 0.831452 25.9716 1.38858 26.1869 1.4518C26.6117 1.57627 27.0345 1.70271 27.4553 1.83113C27.5205 1.85089 27.9294 2.01684 27.9729 1.99708Z" fill="#FE6601"/>
<path d="M33.3662 44.6315C32.7953 47.4646 31.5467 49.5055 30.6853 50.679C31.2128 48.9819 31.9536 45.6944 31.0685 41.589C30.3929 38.4557 29.0336 36.0671 28.0537 34.619C28.3955 34.0776 28.7985 33.2973 29.0554 32.2956C29.3458 31.1695 29.3438 30.1817 29.2865 29.4941C30.8354 31.5468 32.7972 34.7908 33.4532 38.9259C33.9174 41.8538 33.4808 44.0626 33.3662 44.6315Z" fill="#FE6601"/>
<path d="M24.5753 55.5311C25.0791 54.2786 26.0373 51.3428 25.1937 47.6029C24.5516 44.7619 23.1489 42.6934 22.2776 41.589C21.6158 41.9979 20.5608 42.5393 19.1364 42.8534C17.5894 43.1952 16.2499 43.128 15.3984 43.0233C16.6984 43.6298 19.2371 45.0069 21.3748 47.67C23.9984 50.9437 24.4647 54.2213 24.5753 55.5311Z" fill="#FE6601"/>
<path d="M28.8362 24.0909C28.5062 21.9454 28.9112 20.5111 29.3241 19.6141C29.903 18.3517 30.5866 17.9565 31.2267 16.6309C31.9814 15.0642 32.0268 13.5469 31.9616 12.5591C31.7581 13.2762 31.3847 14.1673 30.6715 15.0188C28.3778 17.761 24.5055 17.8044 23.7627 17.8005C24.3969 18.0948 25.1555 18.5295 25.9063 19.1716C28.0044 20.9655 28.6327 23.1722 28.8362 24.0909Z" fill="#FE6601"/>
</svg>
